<?xml version="1.0" encoding="UTF-8"?>
<svg width="20px" height="20px" viewBox="0 0 20 20" version="1.1" xmlns="http://www.w3.org/2000/svg" xmlns:xlink="http://www.w3.org/1999/xlink">
    <!-- Generator: Sketch 53 (72520) - https://sketchapp.com -->
    <title>send</title>
    <desc>Created with Sketch.</desc>
    <g id="Page-1" stroke="none" stroke-width="1" fill="none" fill-rule="evenodd">
        <g id="send" fill="#370A5A" fill-rule="nonzero">
            <path d="M18.8089062,7.93375566 L2.67242188,0.177647059 C1.99261719,-0.149140271 1.22460938,-0.00538461538 0.668164063,0.552624434 C0.11171875,1.11072398 -0.121015625,1.97063348 0.060859375,2.79674208 L1.49714844,9.32126697 L8.52941406,9.32126697 C8.85300781,9.32126697 9.11539063,9.62515837 9.11539063,10.0000452 C9.11539063,10.3748869 8.85304688,10.6788235 8.52941406,10.6788235 L1.49714844,10.6788235 L0.060859375,17.2033032 C-0.121015625,18.029457 0.111679688,18.8893665 0.668164063,19.4474208 C1.22574219,20.0065611 1.99382813,20.148552 2.67246094,19.8223982 L18.8089453,12.0663348 C19.5436328,11.7132127 20,10.921448 20,10.0000452 C20,9.07864253 19.5436328,8.28683258 18.8089062,7.93375566 Z" id="Path"></path>
        </g>
    </g>
</svg>